<?xml version="1.0" encoding="utf-8"?>
<!-- Generator: Adobe Illustrator 24.2.1, SVG Export Plug-In . SVG Version: 6.00 Build 0)  -->
<svg version="1.1" id="Ebene_1" xmlns="http://www.w3.org/2000/svg" xmlns:xlink="http://www.w3.org/1999/xlink" x="0px" y="0px"
	 viewBox="0 0 113 113" style="enable-background:new 0 0 113 113;" xml:space="preserve">
<style type="text/css">
	.st0{fill:#FFFFFF;}
	.st1{fill:none;stroke:#928783;}
	.st2{fill:#CE3C03;}
	.st3{fill:#928783;}
</style>
<g id="Ellipse_1063" transform="translate(131 76)">
	<circle class="st0" cx="-74.5" cy="-19.5" r="56.5"/>
	<circle class="st1" cx="-74.5" cy="-19.5" r="56"/>
</g>
<g id="Gruppe_1388" transform="translate(174.434 119.962)">
	<path id="Pfad_1008" class="st2" d="M-119.4-67.5c1.7,1.2,4.4,0.5,6-1.7s1.6-5-0.1-6.2s-4.4-0.5-6,1.7S-121.1-68.7-119.4-67.5z"/>
	<path id="Pfad_1009" class="st2" d="M-112.1-62.1c1.7,1.2,4.4,0.5,6-1.7s1.6-5-0.1-6.2s-4.4-0.5-6,1.7S-113.8-63.3-112.1-62.1z"/>
	<path id="Pfad_1010" class="st2" d="M-105-59.8c-1.1-1.2-3.3-1.1-4.9,0.4s-2,3.5-0.9,4.8s3.3,1.1,4.9-0.4S-103.9-58.6-105-59.8z"/>
	<path id="Pfad_1011" class="st2" d="M-126.9-66.7c1.5,0.7,3.4-0.2,4.3-2.2s0.5-4-1-4.8s-3.4,0.2-4.3,2.2
		C-128.8-69.5-128.4-67.4-126.9-66.7z"/>
	<path id="Pfad_1012" class="st2" d="M-114.9-56.4c1.4-2.9,0.2-6.4-2.7-7.8c-2.1-1-4.7-0.7-6.5,0.9c-2.2-0.6-4.5,0.3-5.9,2.1
		c-1.8,2.6-1.3,6.1,1.3,8c1,0.7,2.2,1.1,3.4,1.2c0.4,1.2,1.1,2.2,2.1,2.9c2.5,1.9,6.1,1.4,8-1.1C-113.8-52-113.7-54.5-114.9-56.4z"
		/>
</g>
<path id="Pfad_1013" class="st3" d="M81.9,67.4c-5.2,9.7-17.1,13.7-27.1,9.2c0.9,0.1,1.9,0.2,2.8,0.2c10.7,0.1,19.4-8.4,19.6-19.1
	c0.1-10.7-8.4-19.4-19.1-19.6c-1.7,0-3.4,0.2-5,0.6c10.2-5.7,23.1-2,28.8,8.2C85.3,53.3,85.4,61,81.9,67.4z M37.7,64.8
	c-4.2-14.1,3.9-29,18.1-33.2c2.4-0.7,5-1.1,7.5-1.1c1.6,0,3.3,0.2,4.9,0.5c-3.4-1.4-6.9-2.1-10.6-2.1c-15.8,0-28.5,12.7-28.6,28.5
	c0,15.8,12.7,28.5,28.5,28.6c2.7,0,5.5-0.4,8.1-1.2c1.6-0.5,3.2-1.1,4.8-1.9C56.4,86.9,41.8,78.8,37.7,64.8z"/>
</svg>
