<svg width="64" height="64" viewBox="0 0 64 64" fill="none" xmlns="http://www.w3.org/2000/svg">
<circle cx="32" cy="32" r="32" fill="white"/>
<path d="M14 22.8499C15.4177 21.9579 16.8354 20.9766 18.3418 20.1738C20.0253 19.1926 21.7089 18.2114 22.8608 16.5166C23.8354 14.9109 25.6962 14.5541 27.4684 14.3757C28.3544 14.3757 29.2405 13.9297 29.7722 13.2161C30.5696 11.9673 32.1646 11.6997 33.5823 12.3241L32.8734 14.0189C34.2911 14.2865 35.6203 14.6433 36.9494 15.0893C39.076 16.0705 41.2025 17.141 43.2405 18.3898C44.5696 19.1926 45.8101 20.263 47.4937 19.9062C47.7595 21.5119 46.7848 22.1363 43.9494 21.9579C46.6962 24.5447 48.8228 27.3992 49 31.2348C46.962 29.4508 45.0127 27.6667 42.1772 26.5963C48.3798 31.9484 48.6456 38.7278 47.0506 42.385C45.8987 39.263 44.8354 36.4977 42.5316 34.3569C44.2152 38.6386 43.8608 43.3662 41.7342 47.3803C41.0253 48.7183 40.1392 49.878 39.076 50.9484C39.8734 46.8451 40.3165 42.9202 38.6329 38.5494C38.4557 39.4414 38.3671 39.8874 38.2785 40.4226C37.1266 45.6855 33.6709 50.2348 28.8861 52.7324C28.7089 52.8216 28.6203 52.9108 28.443 53H27.9114C28.0886 52.554 28.2658 52.108 28.443 51.662C29.5063 49.6103 30.8354 47.6479 31.6329 45.5071C32.2532 43.9014 32.4304 42.0282 32.7848 40.3334C27.0253 45.6855 19.9367 49.0751 17.4557 47.3803C19.1392 46.3991 20.8228 45.2395 22.4177 43.9906C23.9241 42.6526 25.2532 41.1362 26.4937 39.5306C28 37.5681 28.6203 35.3381 28.5316 34.0001C26.5823 36.4977 24.0127 37.5681 21 37.6573C19.0506 37.7465 18.1646 36.9437 18.3418 34.9813C18.4304 34.3569 18.6962 33.8217 19.2278 33.4649C19.7595 33.2865 20.4684 33.3757 20.9114 33.6433C22.1519 34.4461 23.3924 34.8029 24.6329 34.0001C26.0506 33.1081 26.4051 31.77 26.1392 30.1644C24.1013 29.7184 22.5063 30.3428 20.9114 31.324C19.8481 31.9484 18.6962 32.3945 17.5443 32.7513C16.038 33.0189 15.0633 32.1268 15.0633 30.6104C16.2152 31.6808 17.4557 31.4132 18.6962 30.878C21.0886 29.8076 23.481 28.8264 26.3165 30.0752C26.0506 28.5588 25.3418 27.6668 24.1013 27.31C22.7722 26.9532 21.3544 27.3991 20.4684 28.4696C19.2279 29.8968 18.0759 30.2536 16.7468 29.7184C15.4177 29.094 14.6203 27.5776 14.7975 26.0611C14.8861 25.5259 14.6203 24.9015 14.1772 24.6339L14 22.8499ZM23.2152 20.8874C24.6329 21.5118 25.519 20.9766 26.1392 19.7278C24.0127 19.1034 24.0127 19.1034 23.2152 20.8874Z" fill="#269AD1"/>
</svg>
